<?xml version="1.0" encoding="utf-8"?>
<svg xmlns="http://www.w3.org/2000/svg" viewBox="0 0 16 16" width="16px" height="16px">
  <path d="M 16 8 C 16 12.418 12.418 16 8 16 C 3.582 16 0 12.418 0 8 C 0 3.582 3.582 0 8 0 C 12.418 0 16 3.582 16 8 Z" fill="#0F4C81" style="stroke-width: 1px;"/>
  <g style="mix-blend-mode: soft-light; transform-origin: -0.00706741px 0.000337179px 0px;" opacity="0.3" transform="matrix(0.04507, 0, 0, 0.04507, 0.00707335, -0.00033509)">
    <path d="M239.373 244.606C231.513 244.606 224.536 243.296 218.44 240.676C212.398 238.002 207.613 233.992 204.084 228.645C200.608 223.245 198.87 216.481 198.87 208.354C198.87 201.51 200.073 195.735 202.48 191.03C204.886 186.325 208.201 182.502 212.425 179.561C216.649 176.62 221.515 174.401 227.022 172.904C232.529 171.353 238.411 170.311 244.667 169.776C251.671 169.134 257.312 168.466 261.59 167.771C265.867 167.022 268.968 165.98 270.893 164.643C272.872 163.253 273.861 161.301 273.861 158.788V158.387C273.861 154.27 272.444 151.089 269.61 148.843C266.776 146.597 262.953 145.474 258.141 145.474C252.954 145.474 248.784 146.597 245.629 148.843C242.474 151.089 240.469 154.19 239.614 158.147L203.442 156.863C204.511 149.378 207.265 142.694 211.703 136.812C216.194 130.877 222.343 126.226 230.15 122.857C238.01 119.435 247.447 117.724 258.462 117.724C266.322 117.724 273.567 118.66 280.197 120.531C286.827 122.349 292.602 125.022 297.521 128.551C302.44 132.027 306.236 136.304 308.91 141.384C311.637 146.464 313 152.265 313 158.788V242.521H276.106V225.357H275.144C272.952 229.528 270.145 233.057 266.723 235.944C263.354 238.831 259.371 240.997 254.772 242.44C250.227 243.884 245.094 244.606 239.373 244.606ZM251.484 218.941C255.708 218.941 259.504 218.085 262.873 216.374C266.295 214.663 269.022 212.311 271.054 209.316C273.085 206.269 274.101 202.74 274.101 198.729V187.02C272.978 187.608 271.615 188.143 270.011 188.624C268.46 189.105 266.749 189.56 264.878 189.987C263.006 190.415 261.082 190.789 259.103 191.11C257.125 191.431 255.227 191.725 253.409 191.992C249.719 192.581 246.565 193.49 243.945 194.719C241.378 195.949 239.4 197.553 238.01 199.532C236.673 201.456 236.005 203.756 236.005 206.429C236.005 210.493 237.448 213.594 240.336 215.733C243.276 217.871 246.993 218.941 251.484 218.941Z" fill="white"/>
  </g>
  <g style="mix-blend-mode: soft-light; transform-origin: -0.00706741px 0.000337179px 0px;" opacity="0.3" transform="matrix(0.04507, 0, 0, 0.04507, 0.00707335, -0.00033509)">
    <path d="M67.1658 119.328H106.385V247.654C106.385 257.813 104.3 265.887 100.129 271.875C96.0124 277.864 90.1842 282.168 82.6451 284.788C75.106 287.408 66.2034 288.718 55.9373 288.718C54.5471 288.718 53.2372 288.691 52.0074 288.638C50.7776 288.584 49.4409 288.531 47.9972 288.477V258.722C48.9596 258.829 49.8151 258.909 50.5637 258.962C51.3123 259.016 52.0608 259.043 52.8094 259.043C58.2098 259.043 61.9526 258.027 64.0379 255.995C66.1232 254.016 67.1658 250.969 67.1658 246.852V119.328ZM86.7355 104.972C81.2282 104.972 76.4962 103.154 72.5395 99.5177C68.5828 95.8284 66.6044 91.3905 66.6044 86.204C66.6044 81.0709 68.5828 76.6865 72.5395 73.0506C76.4962 69.3612 81.2282 67.5165 86.7355 67.5165C92.2963 67.5165 97.0283 69.3612 100.932 73.0506C104.888 76.6865 106.867 81.0709 106.867 86.204C106.867 91.3905 104.888 95.8284 100.932 99.5177C97.0283 103.154 92.2963 104.972 86.7355 104.972Z" fill="white"/>
  </g>
  <g style="mix-blend-mode: soft-light; transform-origin: -0.00706741px 0.000337179px 0px;" opacity="0.3" transform="matrix(0.04507, 0, 0, 0.04507, 0.00707335, -0.00033509)">
    <path d="M224.146 244.606C216.286 244.606 209.308 243.296 203.213 240.676C197.171 238.002 192.385 233.992 188.856 228.645C185.381 223.245 183.643 216.481 183.643 208.354C183.643 201.51 184.846 195.735 187.252 191.03C189.658 186.325 192.973 182.502 197.197 179.561C201.421 176.62 206.287 174.401 211.794 172.904C217.302 171.353 223.183 170.311 229.439 169.776C236.444 169.134 242.085 168.466 246.362 167.771C250.64 167.022 253.741 165.98 255.666 164.643C257.644 163.253 258.633 161.301 258.633 158.788V158.387C258.633 154.27 257.216 151.089 254.382 148.843C251.549 146.597 247.726 145.474 242.913 145.474C237.727 145.474 233.556 146.597 230.402 148.843C227.247 151.089 225.242 154.19 224.386 158.147L188.215 156.863C189.284 149.378 192.038 142.694 196.476 136.812C200.967 130.877 207.116 126.226 214.922 122.857C222.782 119.435 232.22 117.724 243.234 117.724C251.094 117.724 258.339 118.66 264.969 120.531C271.599 122.349 277.374 125.022 282.293 128.551C287.212 132.027 291.009 136.304 293.682 141.384C296.409 146.464 297.773 152.265 297.773 158.788V242.521H260.879V225.357H259.917C257.724 229.528 254.917 233.057 251.495 235.944C248.127 238.831 244.143 240.997 239.545 242.44C235 243.884 229.867 244.606 224.146 244.606ZM236.256 218.941C240.481 218.941 244.277 218.085 247.645 216.374C251.067 214.663 253.794 212.311 255.826 209.316C257.858 206.269 258.874 202.74 258.874 198.729V187.02C257.751 187.608 256.388 188.143 254.783 188.624C253.233 189.105 251.522 189.56 249.65 189.987C247.779 190.415 245.854 190.789 243.876 191.11C241.897 191.431 239.999 191.725 238.181 191.992C234.492 192.581 231.337 193.49 228.717 194.719C226.151 195.949 224.172 197.553 222.782 199.532C221.446 201.456 220.777 203.756 220.777 206.429C220.777 210.493 222.221 213.594 225.108 215.733C228.049 217.871 231.765 218.941 236.256 218.941Z" fill="white"/>
  </g>
  <g style="mix-blend-mode: soft-light; transform-origin: -0.00706741px 0.000337179px 0px;" opacity="0.3" transform="matrix(0.04507, 0, 0, 0.04507, 0.00707335, -0.00033509)">
    <path d="M82.3933 119.328H121.613V247.654C121.613 257.813 119.527 265.887 115.357 271.875C111.24 277.864 105.412 282.168 97.8725 284.788C90.3334 287.408 81.4308 288.718 71.1648 288.718C69.7746 288.718 68.4646 288.691 67.2348 288.638C66.005 288.584 64.6683 288.531 63.2246 288.477V258.722C64.1871 258.829 65.0426 258.909 65.7911 258.962C66.5397 259.016 67.2883 259.043 68.0368 259.043C73.4372 259.043 77.18 258.027 79.2653 255.995C81.3506 254.016 82.3933 250.969 82.3933 246.852V119.328ZM101.963 104.972C96.4556 104.972 91.7236 103.154 87.7669 99.5177C83.8102 95.8284 81.8318 91.3905 81.8318 86.204C81.8318 81.0709 83.8102 76.6865 87.7669 73.0506C91.7236 69.3612 96.4556 67.5165 101.963 67.5165C107.524 67.5165 112.256 69.3612 116.159 73.0506C120.116 76.6865 122.094 81.0709 122.094 86.204C122.094 91.3905 120.116 95.8284 116.159 99.5177C112.256 103.154 107.524 104.972 101.963 104.972Z" fill="white"/>
  </g>
  <g style="mix-blend-mode: soft-light; transform-origin: -0.00706741px 0.000337179px 0px;" opacity="0.3" transform="matrix(0.04507, 0, 0, 0.04507, 0.00707335, -0.00033509)">
    <path d="M208.918 244.606C201.058 244.606 194.081 243.296 187.985 240.676C181.943 238.002 177.158 233.992 173.629 228.645C170.153 223.245 168.416 216.481 168.416 208.354C168.416 201.51 169.619 195.735 172.025 191.03C174.431 186.325 177.746 182.502 181.97 179.561C186.194 176.62 191.06 174.401 196.567 172.904C202.074 171.353 207.956 170.311 214.212 169.776C221.216 169.134 226.857 168.466 231.135 167.771C235.412 167.022 238.513 165.98 240.438 164.643C242.417 163.253 243.406 161.301 243.406 158.788V158.387C243.406 154.27 241.989 151.089 239.155 148.843C236.321 146.597 232.498 145.474 227.686 145.474C222.499 145.474 218.329 146.597 215.174 148.843C212.02 151.089 210.014 154.19 209.159 158.147L172.987 156.863C174.057 149.378 176.81 142.694 181.248 136.812C185.74 130.877 191.888 126.226 199.695 122.857C207.555 119.435 216.992 117.724 228.007 117.724C235.867 117.724 243.112 118.66 249.742 120.531C256.372 122.349 262.147 125.022 267.066 128.551C271.985 132.027 275.781 136.304 278.455 141.384C281.182 146.464 282.545 152.265 282.545 158.788V242.521H245.652V225.357H244.689C242.497 229.528 239.69 233.057 236.268 235.944C232.899 238.831 228.916 240.997 224.317 242.44C219.773 243.884 214.639 244.606 208.918 244.606ZM221.029 218.941C225.253 218.941 229.049 218.085 232.418 216.374C235.84 214.663 238.567 212.311 240.599 209.316C242.631 206.269 243.646 202.74 243.646 198.729V187.02C242.524 187.608 241.16 188.143 239.556 188.624C238.005 189.105 236.294 189.56 234.423 189.987C232.552 190.415 230.627 190.789 228.648 191.11C226.67 191.431 224.772 191.725 222.954 191.992C219.265 192.581 216.11 193.49 213.49 194.719C210.923 195.949 208.945 197.553 207.555 199.532C206.218 201.456 205.55 203.756 205.55 206.429C205.55 210.493 206.993 213.594 209.881 215.733C212.822 217.871 216.538 218.941 221.029 218.941Z" fill="white"/>
  </g>
  <g style="mix-blend-mode: soft-light; transform-origin: -0.00706741px 0.000337179px 0px;" opacity="0.3" transform="matrix(0.04507, 0, 0, 0.04507, 0.00707335, -0.00033509)">
    <path d="M97.6207 119.328H136.84V247.654C136.84 257.813 134.755 265.887 130.584 271.875C126.467 277.864 120.639 282.168 113.1 284.788C105.561 287.408 96.6583 288.718 86.3922 288.718C85.002 288.718 83.692 288.691 82.4622 288.638C81.2324 288.584 79.8957 288.531 78.4521 288.477V258.722C79.4145 258.829 80.27 258.909 81.0186 258.962C81.7671 259.016 82.5157 259.043 83.2643 259.043C88.6646 259.043 92.4075 258.027 94.4928 255.995C96.5781 254.016 97.6207 250.969 97.6207 246.852V119.328ZM117.19 104.972C111.683 104.972 106.951 103.154 102.994 99.5177C99.0376 95.8284 97.0593 91.3905 97.0593 86.204C97.0593 81.0709 99.0376 76.6865 102.994 73.0506C106.951 69.3612 111.683 67.5165 117.19 67.5165C122.751 67.5165 127.483 69.3612 131.386 73.0506C135.343 76.6865 137.321 81.0709 137.321 86.204C137.321 91.3905 135.343 95.8284 131.386 99.5177C127.483 103.154 122.751 104.972 117.19 104.972Z" fill="white"/>
  </g>
  <path d="M 8.73 11.024 C 8.375 11.024 8.061 10.965 7.786 10.847 C 7.514 10.727 7.298 10.546 7.139 10.305 C 6.983 10.062 6.904 9.757 6.904 9.391 C 6.904 9.082 6.958 8.822 7.067 8.61 C 7.175 8.398 7.325 8.225 7.515 8.093 C 7.706 7.96 7.925 7.86 8.173 7.793 C 8.421 7.723 8.686 7.676 8.968 7.652 C 9.284 7.623 9.538 7.593 9.731 7.562 C 9.924 7.528 10.064 7.481 10.15 7.421 C 10.24 7.358 10.284 7.27 10.284 7.157 L 10.284 7.139 C 10.284 6.953 10.22 6.81 10.093 6.708 C 9.965 6.607 9.792 6.557 9.576 6.557 C 9.342 6.557 9.154 6.607 9.012 6.708 C 8.869 6.81 8.779 6.949 8.741 7.128 L 7.11 7.07 C 7.158 6.733 7.283 6.431 7.483 6.166 C 7.685 5.899 7.962 5.689 8.314 5.537 C 8.668 5.383 9.094 5.306 9.59 5.306 C 9.944 5.306 10.271 5.348 10.57 5.432 C 10.869 5.514 11.129 5.635 11.35 5.794 C 11.572 5.951 11.743 6.143 11.864 6.372 C 11.987 6.601 12.048 6.863 12.048 7.157 L 12.048 10.931 L 10.385 10.931 L 10.385 10.157 L 10.342 10.157 C 10.243 10.345 10.117 10.504 9.962 10.634 C 9.811 10.764 9.631 10.862 9.424 10.927 C 9.219 10.992 8.988 11.024 8.73 11.024 Z M 9.276 9.868 C 9.466 9.868 9.637 9.829 9.789 9.752 C 9.943 9.675 10.066 9.569 10.158 9.434 C 10.249 9.297 10.295 9.138 10.295 8.957 L 10.295 8.429 C 10.244 8.456 10.183 8.48 10.111 8.501 C 10.041 8.523 9.964 8.544 9.879 8.563 C 9.795 8.582 9.708 8.599 9.619 8.613 C 9.53 8.628 9.444 8.641 9.362 8.653 C 9.196 8.68 9.054 8.721 8.936 8.776 C 8.82 8.832 8.731 8.904 8.668 8.993 C 8.608 9.08 8.578 9.183 8.578 9.304 C 8.578 9.487 8.643 9.627 8.773 9.723 C 8.906 9.82 9.073 9.868 9.276 9.868 Z" fill="white" style="stroke-width: 1px;"/>
  <path d="M 5.086 5.378 L 6.854 5.378 L 6.854 11.162 C 6.854 11.62 6.76 11.984 6.572 12.254 C 6.386 12.523 6.124 12.717 5.784 12.836 C 5.444 12.954 5.043 13.013 4.58 13.013 C 4.517 13.013 4.458 13.011 4.403 13.009 C 4.347 13.007 4.287 13.004 4.222 13.002 L 4.222 11.661 C 4.266 11.666 4.304 11.669 4.338 11.672 C 4.372 11.674 4.405 11.675 4.439 11.675 C 4.682 11.675 4.851 11.629 4.945 11.538 C 5.039 11.449 5.086 11.311 5.086 11.126 L 5.086 5.378 Z M 5.968 4.731 C 5.72 4.731 5.507 4.649 5.328 4.485 C 5.15 4.319 5.061 4.119 5.061 3.885 C 5.061 3.654 5.15 3.456 5.328 3.292 C 5.507 3.126 5.72 3.043 5.968 3.043 C 6.219 3.043 6.432 3.126 6.608 3.292 C 6.786 3.456 6.875 3.654 6.875 3.885 C 6.875 4.119 6.786 4.319 6.608 4.485 C 6.432 4.649 6.219 4.731 5.968 4.731 Z" fill="white" style="stroke-width: 1px;"/>
</svg>